<svg width="30" height="29" viewBox="0 0 30 29" fill="none" xmlns="http://www.w3.org/2000/svg">
<path fill-rule="evenodd" clip-rule="evenodd" d="M12.3125 15.4788H10.575C10.2391 15.4788 9.91731 15.3482 9.68216 15.1163C9.44701 14.8845 9.31828 14.5709 9.325 14.2463V12.5667C9.325 11.8993 9.88464 11.3583 10.575 11.3583H12.3125C13.0029 11.3583 13.5625 11.8993 13.5625 12.5667V14.2704C13.5625 14.9378 13.0029 15.4788 12.3125 15.4788ZM11.7125 13.1467H11.175V13.6663H11.7125V13.1467Z" fill="black"/>
<path d="M10.1625 18.5358H15.7C16.2178 18.5358 16.6375 18.1301 16.6375 17.6296C16.6375 17.1291 16.2178 16.7233 15.7 16.7233H10.1625C9.64473 16.7233 9.225 17.1291 9.225 17.6296C9.225 18.1301 9.64473 18.5358 10.1625 18.5358Z" fill="black"/>
<path d="M17.5 19.7804H10.1625C9.64473 19.7804 9.225 20.1862 9.225 20.6867C9.225 21.1872 9.64473 21.5929 10.1625 21.5929H17.5C18.0178 21.5929 18.4375 21.1872 18.4375 20.6867C18.4375 20.1862 18.0178 19.7804 17.5 19.7804Z" fill="black"/>
<path fill-rule="evenodd" clip-rule="evenodd" d="M24.4125 11.4067L15.6625 2.94834C15.4783 2.79575 15.2425 2.71403 15 2.71875H11.25C7.97081 2.71875 5.3125 5.28845 5.3125 8.45834V20.5417C5.3125 23.7116 7.97081 26.2813 11.25 26.2813H18.75C22.0292 26.2813 24.6875 23.7116 24.6875 20.5417V12.0833C24.6918 11.8315 24.5929 11.5883 24.4125 11.4067ZM15.9375 5.78792L21.5125 11.1771H17.5C16.6371 11.1771 15.9375 10.5008 15.9375 9.66667V5.78792ZM7.1875 20.5417C7.19436 22.7078 9.00919 24.4621 11.25 24.4688H18.75C20.9908 24.4621 22.8056 22.7078 22.8125 20.5417V12.9896H17.5C15.6015 12.9896 14.0625 11.5019 14.0625 9.66667V4.53125H11.25C9.00919 4.53789 7.19436 6.29222 7.1875 8.45834V20.5417Z" fill="black"/>
<path fill-rule="evenodd" clip-rule="evenodd" d="M12.3125 15.4788H10.575C10.2391 15.4788 9.91731 15.3482 9.68216 15.1163C9.44701 14.8845 9.31828 14.5709 9.325 14.2463V12.5667C9.325 11.8993 9.88464 11.3583 10.575 11.3583H12.3125C13.0029 11.3583 13.5625 11.8993 13.5625 12.5667V14.2704C13.5625 14.9378 13.0029 15.4788 12.3125 15.4788ZM11.7125 13.1467H11.175V13.6663H11.7125V13.1467Z" stroke="black"/>
<path d="M10.1625 18.5358H15.7C16.2178 18.5358 16.6375 18.1301 16.6375 17.6296C16.6375 17.1291 16.2178 16.7233 15.7 16.7233H10.1625C9.64473 16.7233 9.225 17.1291 9.225 17.6296C9.225 18.1301 9.64473 18.5358 10.1625 18.5358Z" stroke="black"/>
<path d="M17.5 19.7804H10.1625C9.64473 19.7804 9.225 20.1862 9.225 20.6867C9.225 21.1872 9.64473 21.5929 10.1625 21.5929H17.5C18.0178 21.5929 18.4375 21.1872 18.4375 20.6867C18.4375 20.1862 18.0178 19.7804 17.5 19.7804Z" stroke="black"/>
<path fill-rule="evenodd" clip-rule="evenodd" d="M24.4125 11.4067L15.6625 2.94834C15.4783 2.79575 15.2425 2.71403 15 2.71875H11.25C7.97081 2.71875 5.3125 5.28845 5.3125 8.45834V20.5417C5.3125 23.7116 7.97081 26.2813 11.25 26.2813H18.75C22.0292 26.2813 24.6875 23.7116 24.6875 20.5417V12.0833C24.6918 11.8315 24.5929 11.5883 24.4125 11.4067ZM15.9375 5.78792L21.5125 11.1771H17.5C16.6371 11.1771 15.9375 10.5008 15.9375 9.66667V5.78792ZM7.1875 20.5417C7.19436 22.7078 9.00919 24.4621 11.25 24.4688H18.75C20.9908 24.4621 22.8056 22.7078 22.8125 20.5417V12.9896H17.5C15.6015 12.9896 14.0625 11.5019 14.0625 9.66667V4.53125H11.25C9.00919 4.53789 7.19436 6.29222 7.1875 8.45834V20.5417Z" stroke="black"/>
</svg>
